<svg width="336" height="85" viewBox="0 0 336 85" fill="none" xmlns="http://www.w3.org/2000/svg">
<path d="M7.19531 16.8V0H14.3953V16.8H7.19531ZM14.3906 16.8V0H21.5906V16.8H14.3906ZM21.5859 16.8V0H28.7859V16.8H21.5859ZM28.7812 16.8V0H35.9813V16.8H28.7812ZM35.9766 16.8V0H43.1766V16.8H35.9766ZM48.1759 16.8H47.2399V7.932H42.7039V6.996H48.1759V16.8ZM46.3039 16.8H45.3679V9.804H42.7039V8.868H46.3039V16.8ZM64.7578 16.8V0H71.9578V16.8H64.7578ZM71.9531 16.8V0H79.1531V16.8H71.9531ZM79.1484 16.8V0H86.3484V16.8H79.1484ZM86.3438 16.8V0H93.5438V16.8H86.3438ZM93.5391 16.8V0H100.739V16.8H93.5391ZM100.734 16.8V0H107.934V16.8H100.734ZM112.934 16.8H111.998V7.932H107.462V6.996H112.934V16.8ZM111.062 16.8H110.126V9.804H107.462V8.868H111.062V16.8ZM115.125 16.8V0H122.325V16.8H115.125ZM122.32 16.8V0H129.52V16.8H122.32ZM129.516 16.8V0H136.716V16.8H129.516ZM136.711 16.8V0H143.911V16.8H136.711ZM143.906 16.8V0H151.106V16.8H143.906ZM151.102 16.8V0H158.302V16.8H151.102ZM158.297 16.8V0H165.497V16.8H158.297ZM165.492 16.8V0H172.692V16.8H165.492ZM177.692 16.8H176.756V7.932H172.219V6.996H177.692V16.8ZM175.82 16.8H174.884V9.804H172.219V8.868H175.82V16.8ZM208.664 16.8V0H215.864V16.8H208.664ZM215.859 16.8V0H223.059V16.8H215.859ZM223.055 16.8V0H230.255V16.8H223.055ZM230.25 16.8V0H237.45V16.8H230.25ZM237.445 16.8V0H244.645V16.8H237.445ZM244.641 16.8V0H251.841V16.8H244.641ZM256.84 16.8H255.904V7.932H251.368V6.996H256.84V16.8ZM254.968 16.8H254.032V9.804H251.368V8.868H254.968V16.8ZM259.031 16.8V0H266.231V16.8H259.031ZM266.227 16.8V0H273.427V16.8H266.227ZM278.426 16.8H277.49V7.932H272.954V6.996H278.426V16.8ZM276.554 16.8H275.618V9.804H272.954V8.868H276.554V16.8ZM316.594 16.8V0H323.794V16.8H316.594ZM323.789 16.8V0H330.989V16.8H323.789ZM335.988 16.8H335.052V7.932H330.516V6.996H335.988V16.8ZM334.116 16.8H333.18V9.804H330.516V8.868H334.116V16.8ZM0 31.8V15H7.2V31.8H0ZM7.19531 31.8V15H14.3953V31.8H7.19531ZM22.0586 22.932H17.5226V31.8H16.5866V21.996H22.0586V22.932ZM22.0586 24.804H19.3946V31.8H18.4586V23.868H22.0586V24.804ZM21.1179 22.932V21.996H29.2539V22.932H21.1179ZM21.1179 24.804V23.868H29.2539V24.804H21.1179ZM28.3132 22.932V21.996H36.4493V22.932H28.3132ZM28.3132 24.804V23.868H36.4493V24.804H28.3132ZM35.9766 31.8V15H43.1766V31.8H35.9766ZM43.1719 31.8V15H50.3719V31.8H43.1719ZM55.3712 31.8H54.4352V22.932H49.8992V21.996H55.3712V31.8ZM53.4992 31.8H52.5632V24.804H49.8992V23.868H53.4992V31.8ZM57.5625 31.8V15H64.7625V31.8H57.5625ZM64.7578 31.8V15H71.9578V31.8H64.7578ZM79.6211 22.932H75.0851V31.8H74.1491V21.996H79.6211V22.932ZM79.6211 24.804H76.9571V31.8H76.0211V23.868H79.6211V24.804ZM78.6804 22.932V21.996H86.8164V22.932H78.6804ZM78.6804 24.804V23.868H86.8164V24.804H78.6804ZM85.8757 22.932V21.996H94.0118V22.932H85.8757ZM85.8757 24.804V23.868H94.0118V24.804H85.8757ZM93.0711 22.932V21.996H101.207V22.932H93.0711ZM93.0711 24.804V23.868H101.207V24.804H93.0711ZM100.266 22.932V21.996H108.402V22.932H100.266ZM100.266 24.804V23.868H108.402V24.804H100.266ZM111.062 22.932H107.462V21.996H110.126V15H111.062V22.932ZM112.934 24.804H107.462V23.868H111.998V15H112.934V24.804ZM119.193 22.932V15H120.129V21.996H122.793V22.932H119.193ZM117.321 24.804V15H118.257V23.868H122.793V24.804H117.321ZM121.852 22.932V21.996H129.988V22.932H121.852ZM121.852 24.804V23.868H129.988V24.804H121.852ZM129.048 22.932V21.996H137.184V22.932H129.048ZM129.048 24.804V23.868H137.184V24.804H129.048ZM136.711 31.8V15H143.911V31.8H136.711ZM143.906 31.8V15H151.106V31.8H143.906ZM158.77 22.932H154.234V31.8H153.298V21.996H158.77V22.932ZM158.77 24.804H156.106V31.8H155.17V23.868H158.77V24.804ZM157.829 22.932V21.996H165.965V22.932H157.829ZM157.829 24.804V23.868H165.965V24.804H157.829ZM165.024 22.932V21.996H173.16V22.932H165.024ZM165.024 24.804V23.868H173.16V24.804H165.024ZM175.82 22.932H172.219V21.996H174.884V15H175.82V22.932ZM177.692 24.804H172.219V23.868H176.756V15H177.692V24.804ZM201.469 31.8V15H208.669V31.8H201.469ZM208.664 31.8V15H215.864V31.8H208.664ZM223.527 22.932H218.991V31.8H218.055V21.996H223.527V22.932ZM223.527 24.804H220.863V31.8H219.927V23.868H223.527V24.804ZM222.587 22.932V21.996H230.723V22.932H222.587ZM222.587 24.804V23.868H230.723V24.804H222.587ZM229.782 22.932V21.996H237.918V22.932H229.782ZM229.782 24.804V23.868H237.918V24.804H229.782ZM236.977 22.932V21.996H245.113V22.932H236.977ZM236.977 24.804V23.868H245.113V24.804H236.977ZM244.173 22.932V21.996H252.309V22.932H244.173ZM244.173 24.804V23.868H252.309V24.804H244.173ZM254.968 22.932H251.368V21.996H254.032V15H254.968V22.932ZM256.84 24.804H251.368V23.868H255.904V15H256.84V24.804ZM259.031 31.8V15H266.231V31.8H259.031ZM266.227 31.8V15H273.427V31.8H266.227ZM277.49 31.8V15H278.426V31.8H277.49ZM275.618 31.8V15H276.554V31.8H275.618ZM316.594 31.8V15H323.794V31.8H316.594ZM323.789 31.8V15H330.989V31.8H323.789ZM335.052 31.8V15H335.988V31.8H335.052ZM333.18 31.8V15H334.116V31.8H333.18ZM0 46.8V30H7.2V46.8H0ZM7.19531 46.8V30H14.3953V46.8H7.19531ZM14.3906 46.8V30H21.5906V46.8H14.3906ZM21.5859 46.8V30H28.7859V46.8H21.5859ZM28.7812 46.8V30H35.9813V46.8H28.7812ZM35.9766 46.8V30H43.1766V46.8H35.9766ZM43.1719 46.8V30H50.3719V46.8H43.1719ZM54.4352 46.8V30H55.3712V46.8H54.4352ZM52.5632 46.8V30H53.4992V46.8H52.5632ZM57.5625 46.8V30H64.7625V46.8H57.5625ZM64.7578 46.8V30H71.9578V46.8H64.7578ZM76.0211 46.8V30H76.9571V46.8H76.0211ZM74.1491 46.8V30H75.0851V46.8H74.1491ZM136.711 46.8V30H143.911V46.8H136.711ZM143.906 46.8V30H151.106V46.8H143.906ZM155.17 46.8V30H156.106V46.8H155.17ZM153.298 46.8V30H154.234V46.8H153.298ZM158.297 46.8V30H165.497V46.8H158.297ZM165.492 46.8V30H172.692V46.8H165.492ZM172.688 46.8V30H179.888V46.8H172.688ZM179.883 46.8V30H187.083V46.8H179.883ZM187.078 46.8V30H194.278V46.8H187.078ZM199.277 46.8H198.341V37.932H193.805V36.996H199.277V46.8ZM197.405 46.8H196.469V39.804H193.805V38.868H197.405V46.8ZM201.469 46.8V30H208.669V46.8H201.469ZM208.664 46.8V30H215.864V46.8H208.664ZM219.927 46.8V30H220.863V46.8H219.927ZM218.055 46.8V30H218.991V46.8H218.055ZM259.031 46.8V30H266.231V46.8H259.031ZM266.227 46.8V30H273.427V46.8H266.227ZM277.49 46.8V30H278.426V46.8H277.49ZM275.618 46.8V30H276.554V46.8H275.618ZM316.594 46.8V30H323.794V46.8H316.594ZM323.789 46.8V30H330.989V46.8H323.789ZM335.052 46.8V30H335.988V46.8H335.052ZM333.18 46.8V30H334.116V46.8H333.18ZM0 61.8V45H7.2V61.8H0ZM7.19531 61.8V45H14.3953V61.8H7.19531ZM22.0586 52.932H17.5226V61.8H16.5866V51.996H22.0586V52.932ZM22.0586 54.804H19.3946V61.8H18.4586V53.868H22.0586V54.804ZM21.1179 52.932V51.996H29.2539V52.932H21.1179ZM21.1179 54.804V53.868H29.2539V54.804H21.1179ZM28.3132 52.932V51.996H36.4493V52.932H28.3132ZM28.3132 54.804V53.868H36.4493V54.804H28.3132ZM35.9766 61.8V45H43.1766V61.8H35.9766ZM43.1719 61.8V45H50.3719V61.8H43.1719ZM54.4352 61.8V45H55.3712V61.8H54.4352ZM52.5632 61.8V45H53.4992V61.8H52.5632ZM57.5625 61.8V45H64.7625V61.8H57.5625ZM64.7578 61.8V45H71.9578V61.8H64.7578ZM76.0211 61.8V45H76.9571V61.8H76.0211ZM74.1491 61.8V45H75.0851V61.8H74.1491ZM136.711 61.8V45H143.911V61.8H136.711ZM143.906 61.8V45H151.106V61.8H143.906ZM155.17 61.8V45H156.106V61.8H155.17ZM153.298 61.8V45H154.234V61.8H153.298ZM162.365 52.932V45H163.301V51.996H165.965V52.932H162.365ZM160.493 54.804V45H161.429V53.868H165.965V54.804H160.493ZM165.024 52.932V51.996H173.16V52.932H165.024ZM165.024 54.804V53.868H173.16V54.804H165.024ZM172.219 52.932V51.996H180.356V52.932H172.219ZM172.219 54.804V53.868H180.356V54.804H172.219ZM179.415 52.932V51.996H187.551V52.932H179.415ZM179.415 54.804V53.868H187.551V54.804H179.415ZM186.61 52.932V51.996H194.746V52.932H186.61ZM186.61 54.804V53.868H194.746V54.804H186.61ZM197.405 52.932H193.805V51.996H196.469V45H197.405V52.932ZM199.277 54.804H193.805V53.868H198.341V45H199.277V54.804ZM201.469 61.8V45H208.669V61.8H201.469ZM208.664 61.8V45H215.864V61.8H208.664ZM219.927 61.8V45H220.863V61.8H219.927ZM218.055 61.8V45H218.991V61.8H218.055ZM259.031 61.8V45H266.231V61.8H259.031ZM266.227 61.8V45H273.427V61.8H266.227ZM277.49 61.8V45H278.426V61.8H277.49ZM275.618 61.8V45H276.554V61.8H275.618ZM316.594 61.8V45H323.794V61.8H316.594ZM323.789 61.8V45H330.989V61.8H323.789ZM335.052 61.8V45H335.988V61.8H335.052ZM333.18 61.8V45H334.116V61.8H333.18ZM0 76.8V60H7.2V76.8H0ZM7.19531 76.8V60H14.3953V76.8H7.19531ZM18.4586 76.8V60H19.3946V76.8H18.4586ZM16.5866 76.8V60H17.5226V76.8H16.5866ZM35.9766 76.8V60H43.1766V76.8H35.9766ZM43.1719 76.8V60H50.3719V76.8H43.1719ZM54.4352 76.8V60H55.3712V76.8H54.4352ZM52.5632 76.8V60H53.4992V76.8H52.5632ZM61.6305 67.932V60H62.5665V66.996H65.2305V67.932H61.6305ZM59.7585 69.804V60H60.6945V68.868H65.2305V69.804H59.7585ZM64.7578 76.8V60H71.9578V76.8H64.7578ZM71.9531 76.8V60H79.1531V76.8H71.9531ZM79.1484 76.8V60H86.3484V76.8H79.1484ZM86.3438 76.8V60H93.5438V76.8H86.3438ZM93.5391 76.8V60H100.739V76.8H93.5391ZM100.734 76.8V60H107.934V76.8H100.734ZM112.934 76.8H111.998V67.932H107.462V66.996H112.934V76.8ZM111.062 76.8H110.126V69.804H107.462V68.868H111.062V76.8ZM136.711 76.8V60H143.911V76.8H136.711ZM143.906 76.8V60H151.106V76.8H143.906ZM155.17 76.8V60H156.106V76.8H155.17ZM153.298 76.8V60H154.234V76.8H153.298ZM205.537 67.932V60H206.473V66.996H209.137V67.932H205.537ZM203.665 69.804V60H204.601V68.868H209.137V69.804H203.665ZM208.664 76.8V60H215.864V76.8H208.664ZM215.859 76.8V60H223.059V76.8H215.859ZM223.055 76.8V60H230.255V76.8H223.055ZM230.25 76.8V60H237.45V76.8H230.25ZM237.445 76.8V60H244.645V76.8H237.445ZM244.641 76.8V60H251.841V76.8H244.641ZM256.84 76.8H255.904V67.932H251.368V66.996H256.84V76.8ZM254.968 76.8H254.032V69.804H251.368V68.868H254.968V76.8ZM259.031 76.8V60H266.231V76.8H259.031ZM266.227 76.8V60H273.427V76.8H266.227ZM273.422 76.8V60H280.622V76.8H273.422ZM280.617 76.8V60H287.817V76.8H280.617ZM287.812 76.8V60H295.013V76.8H287.812ZM295.008 76.8V60H302.208V76.8H295.008ZM302.203 76.8V60H309.403V76.8H302.203ZM314.402 76.8H313.466V67.932H308.93V66.996H314.402V76.8ZM312.53 76.8H311.594V69.804H308.93V68.868H312.53V76.8ZM316.594 76.8V60H323.794V76.8H316.594ZM323.789 76.8V60H330.989V76.8H323.789ZM335.052 76.8V60H335.988V76.8H335.052ZM333.18 76.8V60H334.116V76.8H333.18ZM4.068 82.932V75H5.004V81.996H7.668V82.932H4.068ZM2.196 84.804V75H3.132V83.868H7.668V84.804H2.196ZM6.72731 82.932V81.996H14.8633V82.932H6.72731ZM6.72731 84.804V83.868H14.8633V84.804H6.72731ZM17.5226 82.932H13.9226V81.996H16.5866V75H17.5226V82.932ZM19.3946 84.804H13.9226V83.868H18.4586V75H19.3946V84.804ZM40.0446 82.932V75H40.9806V81.996H43.6446V82.932H40.0446ZM38.1726 84.804V75H39.1086V83.868H43.6446V84.804H38.1726ZM42.7039 82.932V81.996H50.8399V82.932H42.7039ZM42.7039 84.804V83.868H50.8399V84.804H42.7039ZM53.4992 82.932H49.8992V81.996H52.5632V75H53.4992V82.932ZM55.3712 84.804H49.8992V83.868H54.4352V75H55.3712V84.804ZM68.8258 82.932V75H69.7618V81.996H72.4258V82.932H68.8258ZM66.9538 84.804V75H67.8898V83.868H72.4258V84.804H66.9538ZM71.4851 82.932V81.996H79.6211V82.932H71.4851ZM71.4851 84.804V83.868H79.6211V84.804H71.4851ZM78.6804 82.932V81.996H86.8164V82.932H78.6804ZM78.6804 84.804V83.868H86.8164V84.804H78.6804ZM85.8757 82.932V81.996H94.0118V82.932H85.8757ZM85.8757 84.804V83.868H94.0118V84.804H85.8757ZM93.0711 82.932V81.996H101.207V82.932H93.0711ZM93.0711 84.804V83.868H101.207V84.804H93.0711ZM100.266 82.932V81.996H108.402V82.932H100.266ZM100.266 84.804V83.868H108.402V84.804H100.266ZM111.062 82.932H107.462V81.996H110.126V75H111.062V82.932ZM112.934 84.804H107.462V83.868H111.998V75H112.934V84.804ZM140.779 82.932V75H141.715V81.996H144.379V82.932H140.779ZM138.907 84.804V75H139.843V83.868H144.379V84.804H138.907ZM143.438 82.932V81.996H151.574V82.932H143.438ZM143.438 84.804V83.868H151.574V84.804H143.438ZM154.234 82.932H150.634V81.996H153.298V75H154.234V82.932ZM156.106 84.804H150.634V83.868H155.17V75H156.106V84.804ZM212.732 82.932V75H213.668V81.996H216.332V82.932H212.732ZM210.86 84.804V75H211.796V83.868H216.332V84.804H210.86ZM215.391 82.932V81.996H223.527V82.932H215.391ZM215.391 84.804V83.868H223.527V84.804H215.391ZM222.587 82.932V81.996H230.723V82.932H222.587ZM222.587 84.804V83.868H230.723V84.804H222.587ZM229.782 82.932V81.996H237.918V82.932H229.782ZM229.782 84.804V83.868H237.918V84.804H229.782ZM236.977 82.932V81.996H245.113V82.932H236.977ZM236.977 84.804V83.868H245.113V84.804H236.977ZM244.173 82.932V81.996H252.309V82.932H244.173ZM244.173 84.804V83.868H252.309V84.804H244.173ZM254.968 82.932H251.368V81.996H254.032V75H254.968V82.932ZM256.84 84.804H251.368V83.868H255.904V75H256.84V84.804ZM263.099 82.932V75H264.035V81.996H266.699V82.932H263.099ZM261.227 84.804V75H262.163V83.868H266.699V84.804H261.227ZM265.759 82.932V81.996H273.895V82.932H265.759ZM265.759 84.804V83.868H273.895V84.804H265.759ZM272.954 82.932V81.996H281.09V82.932H272.954ZM272.954 84.804V83.868H281.09V84.804H272.954ZM280.149 82.932V81.996H288.285V82.932H280.149ZM280.149 84.804V83.868H288.285V84.804H280.149ZM287.344 82.932V81.996H295.481V82.932H287.344ZM287.344 84.804V83.868H295.481V84.804H287.344ZM294.54 82.932V81.996H302.676V82.932H294.54ZM294.54 84.804V83.868H302.676V84.804H294.54ZM301.735 82.932V81.996H309.871V82.932H301.735ZM301.735 84.804V83.868H309.871V84.804H301.735ZM312.53 82.932H308.93V81.996H311.594V75H312.53V82.932ZM314.402 84.804H308.93V83.868H313.466V75H314.402V84.804ZM320.662 82.932V75H321.598V81.996H324.262V82.932H320.662ZM318.79 84.804V75H319.726V83.868H324.262V84.804H318.79ZM323.321 82.932V81.996H331.457V82.932H323.321ZM323.321 84.804V83.868H331.457V84.804H323.321ZM334.116 82.932H330.516V81.996H333.18V75H334.116V82.932ZM335.988 84.804H330.516V83.868H335.052V75H335.988V84.804Z" fill="white"/>
</svg>
